# xmcd
#
# Track frame offsets: 
#        150
#        14117
#        30652
#        48485
#        64082
#        78900
#        89385
#        103357
#        118985
#        129012
#        143192
#        154067
#        167865
#
# Disc length: 2391 seconds
#
# Revision: 0
# Processed by: cddbd v1.5.1PL0 Copyright (c) Steve Scherf et al.
# Submitted via: ExactAudioCopy v0.95a5
#
DISCID=b209550d
DTITLE=Reginaldo Rossi - A Volta
DYEAR=1980
DGENRE=Brega
TTITLE0=Volta
TTITLE1=Amor, Amor, Amor
TTITLE2=Mulher
TTITLE3=Recife (San Francisco/Be Sure to Wear Some Flowers in Your Hai
TTITLE3=r)
TTITLE4=A Porta
TTITLE5=Prisioneiro do Rock
TTITLE6=Doce Pecado
TTITLE7=A Idade do Lobo
TTITLE8=Uma Tentação
TTITLE9=Tenho Que Voltar
TTITLE10=Felicidade
TTITLE11=De Hoje em Diante
TTITLE12=Sai de Mim
EXTD=
EXTT0=
EXTT1=
EXTT2=
EXTT3=
EXTT4=
EXTT5=
EXTT6=
EXTT7=
EXTT8=
EXTT9=
EXTT10=
EXTT11=
EXTT12=
PLAYORDER=
